# xmcd
#
# Track frame offsets: 
#        150
#        21877
#        40410
#        63828
#        77821
#        102016
#        124963
#        145728
#        170007
#        192468
#        224122
#        247597
#        262894
#
# Disc length: 3777 seconds
#
# Revision: 0
# Processed by: cddbd v1.5.2PL0 Copyright (c) Steve Scherf et al.
# Submitted via: ExactAudioCopy v0.99pb5
#
DISCID=b70ebf0d
DTITLE=David Bowie  - Glass Spider [Disc 2]
DYEAR=1900
DGENRE=
TTITLE0=Big Brother - [Live]
TTITLE1='87 and Cry - [Live]
TTITLE2="Heroes" - [Live]
TTITLE3=Sons of the Silent Age - [Live]
TTITLE4=Time Will Crawl - [Live]
TTITLE5=Young Americans - [Live]
TTITLE6=Beat of Your Drum - [Live]
TTITLE7=The Jean Genie - [Live]
TTITLE8=Let's Dance - [Live]
TTITLE9=Fame - [Live]
TTITLE10=Time - [Live]
TTITLE11=Blue Jean - [Live]
TTITLE12=Modern Love - [Live]
EXTD=
EXTT0=
EXTT1=
EXTT2=
EXTT3=
EXTT4=
EXTT5=
EXTT6=
EXTT7=
EXTT8=
EXTT9=
EXTT10=
EXTT11=
EXTT12=
PLAYORDER=
